<svg id="logosandtypes_com" data-name="logosandtypes com" xmlns="http://www.w3.org/2000/svg" viewBox="0 0 150 150"><defs><style>.cls-1{fill:none;}.cls-2{fill:#0acf83;}.cls-3{fill:#a259ff;}.cls-4{fill:#f24e1e;}.cls-5{fill:#ff7262;}.cls-6{fill:#1abcfe;}</style></defs><path class="cls-1" d="M0,.2H150v150H0Z" transform="translate(0 -0.2)"/><path id="path0_fill" data-name="path0 fill" class="cls-2" d="M58.53,136.62A20.45,20.45,0,0,0,79,116.18V93.81L58.53,95.73a20.45,20.45,0,1,0,0,40.89Z" transform="translate(0 -0.2)"/><path id="path1_fill" data-name="path1 fill" class="cls-3" d="M38.08,75.28A20.45,20.45,0,0,1,58.53,54.84L79,51.52V95.73H58.53A20.46,20.46,0,0,1,38.08,75.28Z" transform="translate(0 -0.2)"/><path id="path1_fill-2" data-name="path1 fill" class="cls-4" d="M38.08,34.39A20.45,20.45,0,0,1,58.53,14h24L79,54.84H58.53A20.46,20.46,0,0,1,38.08,34.39Z" transform="translate(0 -0.2)"/><path id="path2_fill" data-name="path2 fill" class="cls-5" d="M79,14H99.42a20.45,20.45,0,0,1,0,40.89H79Z" transform="translate(0 -0.2)"/><path id="path3_fill" data-name="path3 fill" class="cls-6" d="M119.86,75.28A20.45,20.45,0,1,1,99.42,54.84,20.45,20.45,0,0,1,119.86,75.28Z" transform="translate(0 -0.2)"/></svg>